<?xml version="1.0" encoding="UTF-8" standalone="no"?>
<!-- Created with Inkscape (http://www.inkscape.org/) -->

<svg
   width="235"
   height="235"
   viewBox="0 0 62.177083 62.177084"
   version="1.1"
   id="svg1"
   xml:space="preserve"
   inkscape:version="1.3.2 (091e20e, 2023-11-25, custom)"
   sodipodi:docname="hospital_selected.svg"
   inkscape:export-filename="hospital_wiki_commons_2.svg"
   inkscape:export-xdpi="96"
   inkscape:export-ydpi="96"
   xmlns:inkscape="http://www.inkscape.org/namespaces/inkscape"
   xmlns:sodipodi="http://sodipodi.sourceforge.net/DTD/sodipodi-0.dtd"
   xmlns="http://www.w3.org/2000/svg"
   xmlns:svg="http://www.w3.org/2000/svg"
   xmlns:rdf="http://www.w3.org/1999/02/22-rdf-syntax-ns#"
   xmlns:cc="http://creativecommons.org/ns#"
   xmlns:dc="http://purl.org/dc/elements/1.1/"><title
     id="title1">my_svg_icon</title><sodipodi:namedview
     id="namedview1"
     pagecolor="#ffffff"
     bordercolor="#000000"
     borderopacity="0.25"
     inkscape:showpageshadow="2"
     inkscape:pageopacity="0.0"
     inkscape:pagecheckerboard="true"
     inkscape:deskcolor="#d1d1d1"
     inkscape:document-units="mm"
     inkscape:zoom="1.1598906"
     inkscape:cx="227.60767"
     inkscape:cy="45.262889"
     inkscape:window-width="1600"
     inkscape:window-height="847"
     inkscape:window-x="-8"
     inkscape:window-y="22"
     inkscape:window-maximized="1"
     inkscape:current-layer="layer1" /><defs
     id="defs1"><clipPath
       clipPathUnits="userSpaceOnUse"
       id="clipPath13"><ellipse
         style="fill:#000000;stroke-width:0.963303"
         id="ellipse13"
         cx="115.82172"
         cy="119.10233"
         rx="98.264572"
         ry="98.270859"
         transform="matrix(0.99994198,-0.0107719,0.01341636,0.99991,0,0)" /></clipPath></defs><g
     inkscape:label="Layer 1"
     inkscape:groupmode="layer"
     id="layer1"><g
       id="g1"
       transform="matrix(0.26458333,0,0,0.26458333,-0.0654997,-0.17955527)"
       clip-path="url(#clipPath13)"
       style="display:inline"><rect
         height="235"
         width="235"
         y="0"
         x="0"
         fill="#b1b1b1"
         id="rect1"
         style="display:none" /><path
         d="m 117.5,18.501 c -54.675,0 -98.999,44.324 -98.999,99 0,54.675 44.324,98.999 98.999,98.999 54.675,0 98.999,-44.323 98.999,-98.999 0,-54.676 -44.324,-99 -98.999,-99 z m 0,184.48 c -47.209,0 -85.479,-38.27 -85.479,-85.478 0,-47.209 38.27,-85.479 85.479,-85.479 47.209,0 85.479,38.27 85.479,85.479 0,47.208 -38.27,85.478 -85.479,85.478 z"
         fill="#e3e3e3"
         id="path1"
         style="display:inline;fill:#ff0000" /><circle
         cy="117.5"
         cx="117.5"
         r="79.725998"
         fill="#eda33f"
         id="circle1"
         style="display:inline;fill:#0000ff" /><g
         id="g12"
         style="display:inline"><ellipse
           cy="150.06"
           cx="117.5"
           rx="44.063"
           ry="7.711"
           id="ellipse1" /><path
           fill="#ffffff"
           d="m 105.23,77.228 v 5.2852 H 86.98 v 67.547 h 61.043 v -67.547 h -18.25 V 77.228 Z"
           id="path2" /><path
           fill="#8fbdcf"
           d="m 92.58,91.316 v 14.738 h 18.75 3.627 8.7168 18.488 V 91.316 h -18.488 -8.7168 -3.627 z m 0,17.953 v 14.736 h 20.791 10.303 18.488 v -14.736 h -18.488 -10.303 z m 0,17.613 v 14.738 h 12.342 v -14.738 z m 37.238,0 v 14.738 h 12.344 v -14.738 z"
           id="path3" /><g
           fill="#508ca8"
           id="g11"><rect
             height="23.177999"
             width="17.708"
             y="126.89"
             x="108.61"
             id="rect3" /><path
             d="m 92.58,126.89 v 14.738 h 1.7767 V 126.89 Z m 10.559,0 v 14.738 h 1.777 V 126.89 Z"
             id="path4" /><path
             d="m 129.73,126.89 v 14.738 h 1.7767 V 126.89 Z m 10.622,0 v 14.738 h 1.777 V 126.89 Z"
             id="path5" /><path
             d="m 92.58,109.26 v 14.738 h 1.7767 V 109.26 Z m 10.559,0 v 14.738 h 1.777 V 109.26 Z"
             id="path6" /><path
             d="m 129.73,109.26 v 14.738 h 1.7767 V 109.26 Z m 10.622,0 v 14.738 h 1.777 V 109.26 Z"
             id="path7" /><path
             d="m 92.58,91.258 v 14.738 h 1.7767 V 91.258 Z m 10.559,0 v 14.738 h 1.777 V 91.258 Z"
             id="path8" /><path
             d="m 129.73,91.258 v 14.738 h 1.7767 V 91.258 Z m 10.622,0 v 14.738 h 1.777 V 91.258 Z"
             id="path9" /><path
             d="m 111.3,91.258 v 14.738 h 1.7767 V 91.258 Z m 10.622,0 v 14.738 h 1.777 V 91.258 Z"
             id="path10" /><path
             d="m 111.3,109.26 v 14.738 h 1.7767 V 109.26 Z m 10.622,0 v 14.738 h 1.777 V 109.26 Z"
             id="path11" /></g><circle
           cy="108.29"
           cx="117.5"
           r="9.3691998"
           fill="#ffffff"
           id="circle11" /><path
           fill="#e92626"
           d="m 115.55,110.25 h -4.0425 v -3.9325 h 4.0425 v -4.3725 h 3.9325 v 4.3725 h 4.015 v 3.9325 h -4.015 v 4.3725 H 115.55 Z"
           id="path12" /></g></g></g><metadata
     id="metadata1"><rdf:RDF><cc:Work
         rdf:about=""><dc:title>my_svg_icon</dc:title></cc:Work></rdf:RDF></metadata></svg>
